<?xml version="1.0" encoding="UTF-8" standalone="no"?>
<svg
   id="Layer_1"
   data-name="Layer 1"
   viewBox="0 0 511.99998 512"
   version="1.1"
   width="512"
   height="512"
   xmlns="http://www.w3.org/2000/svg"
   xmlns:svg="http://www.w3.org/2000/svg"
   xmlns:rdf="http://www.w3.org/1999/02/22-rdf-syntax-ns#"
   xmlns:cc="http://creativecommons.org/ns#"
   xmlns:dc="http://purl.org/dc/elements/1.1/">
  <defs
     id="defs4">
    <style
       id="style2">.cls-1{fill:#9c27b0;}.cls-2{fill:#7b1fa2;}.cls-3{fill:#fff;}</style>
  </defs>
  <title
     id="title6">PWA_eesign_solution</title>
  <polygon
     class="cls-1"
     points="8.36,76.97 1.86,18.04 46.45,1.83 91.04,18.04 83.92,76.87 46.45,98.03 "
     id="polygon8"
     transform="matrix(5.06038,0,0,5.06038,20.920045,2.981)" />
  <polyline
     class="cls-2"
     points="46.45 1.83 91.04 18.04 83.92 76.87 46.45 98.03"
     id="polyline10"
     transform="matrix(5.06038,0,0,5.06038,20.920045,2.981)" />
  <path
     d="M 256.0253,509.019 55.07761,397.69064 20.920045,88.400215 255.97469,2.981 491.07996,88.450819 485.1087,137.78952 a 8.7038537,8.7038537 0 0 1 -17.25589,-2.07475 L 472.15413,100.29211 255.97469,21.501991 39.744659,100.08969 71.523845,387.06385 255.92409,489.08111 437.43993,386.55781 460.36344,197.24899 a 8.7038537,8.7038537 0 0 1 17.2559,2.07476 l -23.9356,198.06327 z"
     id="path12"
     style="stroke-width:5.06038" />
  <path
     class="cls-3"
     d="m 310.27257,203.9793 h 27.42726 c 0,0.35422 0,0.70845 -0.35423,1.01207 l -39.87578,98.87983 c -0.45543,1.11328 -0.80966,2.27717 -1.2145,3.44106 h -27.37666 a 12.296724,12.296724 0 0 0 -0.30362,-1.56872 l -16.54744,-52.93158 -1.72053,-5.51581 c -0.30363,0.80966 -0.50604,1.21449 -0.65785,1.61932 l -6.6291,20.24152 -12.54974,38.15527 h -27.37666 a 16.142612,16.142612 0 0 0 -0.70845,-1.56872 Q 196.161,295.01553 189.93673,284.33813 a 2.8338128,2.8338128 0 0 1 -0.25302,-2.53019 q 5.36401,-16.34503 10.6268,-32.74066 l 2.78321,-8.24842 15.18114,30.36228 c 0.30362,-0.80966 0.50604,-1.3157 0.70845,-1.82173 l 14.5739,-44.83497 q 3.28925,-10.12076 6.52789,-20.24152 h 21.10178 v 0.40483 l 19.68488,65.02588 c 0,0.40483 0.30363,0.75906 0.55664,1.41691 l 0.70847,-1.51812 20.24151,-47.06153 c 2.78322,-6.37608 5.3134,-12.49914 7.89419,-18.57159 z"
     id="path14"
     style="stroke-width:5.06038" />
  <path
     class="cls-3"
     d="M 144.94995,307.31226 H 118.889 V 203.9793 h 46.04946 c 2.42898,0.35422 5.06038,0.65784 7.28694,1.11328 a 30.36228,30.36228 0 0 1 19.53307,12.54974 2.1759634,2.1759634 0 0 1 0.30362,2.12536 q -7.9954,24.59345 -15.94019,49.1869 a 1.771133,1.771133 0 0 1 -1.56872,1.4169 83.192648,83.192648 0 0 1 -8.65325,1.21449 c -6.42668,0 -12.90397,0 -19.33065,0 -1.21449,0 -1.66993,0.25302 -1.61933,1.56872 0,2.93502 0,5.87004 0,8.75446 q 0,12.80276 0,25.40311 z m 0,-83.24326 a 5.06038,5.06038 0 0 0 0,0.80966 c 0,8.65325 0,17.2559 0,25.90915 0,0.86027 0.35423,1.11328 1.16389,1.06268 4.14951,0 8.29903,0 12.44854,0 a 11.689478,11.689478 0 0 0 12.24612,-9.66533 21.911446,21.911446 0 0 0 0,-7.03392 11.385855,11.385855 0 0 0 -9.61473,-10.12076 17.559519,17.559519 0 0 0 -3.54226,-0.45544 z"
     id="path16"
     style="stroke-width:5.06038" />
  <path
     class="cls-3"
     d="m 364.26684,307.31226 a 8.8556651,8.8556651 0 0 0 0,-1.16389 c -1.92296,-5.41461 -3.89651,-10.82921 -5.76885,-16.24382 a 1.5687178,1.5687178 0 0 0 -1.82173,-1.21449 H 321.2536 c 0,-0.60725 0.30363,-1.01208 0.45543,-1.41691 2.27717,-5.76883 4.55434,-11.53767 6.78091,-17.3065 a 1.6193216,1.6193216 0 0 1 1.82174,-1.21449 h 21.55721 l -0.55664,-1.56872 q -5.06038,-13.76423 -9.86774,-27.57907 a 3.3904546,3.3904546 0 0 1 0,-2.58079 q 6.27487,-15.68718 12.44854,-31.42496 l 0.55664,-1.36631 c 0.30362,0.75906 0.55664,1.2145 0.75906,1.77114 l 37.54802,99.8413 a 11.942497,11.942497 0 0 0 0.60724,1.16388 5.06038,5.06038 0 0 1 -1.11328,0.25302 z"
     id="path18"
     style="stroke-width:5.06038" />
  <metadata
     id="metadata23">
    <rdf:RDF>
      <cc:Work
         rdf:about="">
        <dc:title>PWA_eesign_solution</dc:title>
      </cc:Work>
    </rdf:RDF>
  </metadata>
</svg>
